<?xml version="1.0" encoding="UTF-8"?>
<!DOCTYPE svg PUBLIC "-//W3C//DTD SVG 1.1//EN" "http://www.w3.org/Graphics/SVG/1.1/DTD/svg11.dtd">
<!-- Creator: CorelDRAW 2019 (64 Bit Versão de avaliação) -->
<svg xmlns="http://www.w3.org/2000/svg" xml:space="preserve" width="34.6195mm" height="17.267mm" version="1.1" style="shape-rendering:geometricPrecision; text-rendering:geometricPrecision; image-rendering:optimizeQuality; fill-rule:evenodd; clip-rule:evenodd"
viewBox="0 0 949.23 473.45"
 xmlns:xlink="http://www.w3.org/1999/xlink"
 xmlns:xodm="http://www.corel.com/coreldraw/odm/2003">
 <defs>
  <style type="text/css">
   <![CDATA[
    .fil0 {fill:#01FEAA}
    .fil1 {fill:#460376}
    .fil2 {fill:#460377}
   ]]>
  </style>
 </defs>
 <g id="Camada_x0020_1">
  <metadata id="CorelCorpID_0Corel-Layer"/>
  <g id="_2318111121616">
   <path class="fil0" d="M658.11 145.41c3.62,5.38 4.9,16.12 4.98,22.5 4.17,3.36 8.77,19.62 12.18,26.31 3.61,7.08 12.11,18.83 13.28,24.78l27.23 27.87c41.42,39.46 82.78,44.77 105.62,56.81 -3.43,14.18 -39.4,45.26 -51.12,54.44 -85.27,66.83 -157.25,53.89 -254.61,56.3l-11.8 57.53c65.31,2.55 137.24,3.73 193.57,-12.62 95.94,-27.85 178.42,-101.93 213.18,-197.01 11.3,-30.9 34.3,-134.46 38.61,-167.9l-57.62 0.65c-4.52,7.92 -14.22,65 -17.39,79.18 -2.81,12.55 -5.29,26.92 -8.61,39.53 -3.54,13.45 -8.33,23.71 -11.97,36.45 -34.88,0.27 -118.23,-46.47 -123.93,-79.25 -4.64,-3.95 -6.84,-11.06 -8.94,-17.16l-13.51 -59.07 -59.18 0.06 10.02 50.6z"/>
   <path class="fil1" d="M293.61 52.07c3.48,-5.52 10.95,-43.12 11.17,-52.01l-208.03 0.11 -17.73 85.66c-5.98,28.07 -52.48,247.64 -51.83,257.04l60.49 -0.4 16.43 -75.2c3.61,-17.64 10.51,-60.4 15.93,-73.45l126.14 0.06c3.3,-12.51 9.85,-39.1 10.21,-52.57l-125.56 -0.5c-0.28,-7.04 6.41,-34.07 8.37,-43.1 1.64,-7.54 3.23,-16.33 4.63,-23.56 0.86,-4.41 1.46,-7.37 2.32,-10.95 1.47,-6.09 0.04,-5.11 3.2,-9.02 9.28,-5.71 121.08,0.82 144.27,-2.11z"/>
   <polygon class="fil1" points="503.87,471.95 515.67,414.41 11.49,414.7 -0,472.17 "/>
   <path class="fil1" d="M500.96 94.28c-1.58,-14.68 12.01,-50.03 12.14,-68.07 -9.93,-3.82 -45.82,-1.77 -58.81,-0.97 -4.05,7.71 -12.1,56.6 -15.12,69.09l-44.77 0.24c-3.12,6.54 -11.21,42.55 -10.64,50.02l43.6 0.02c0.17,11.83 -6.5,40.2 -9.34,53 -5.18,23.35 -30.78,135.78 -29.26,145.24l57.76 -0.16c5.37,-8.95 38.35,-173.09 42.98,-197.84 12.53,-0.43 56.96,3.32 64.59,-1.93l9.33 -48.49 -62.46 -0.15z"/>
   <path class="fil2" d="M688.55 219c-1.17,-5.95 -9.67,-17.7 -13.28,-24.78 -3.41,-6.7 -8.01,-22.95 -12.18,-26.31 -10.02,7.86 -27.88,31.12 -36.82,41.03 -11.26,12.47 -85.06,93.86 -87.82,101.89 -2.25,6.52 -6.41,24.85 -4.97,31.98l198.93 -0.26c3.5,-8.82 9.85,-39.13 9.94,-49.67l-117.24 -0.21c0.69,-5.3 57.32,-68.05 63.44,-73.67z"/>
   <path class="fil1" d="M323.85 342.52c3.18,-6.97 50.43,-233.6 51.48,-248.06l-59.6 0.47 -50.5 247.76 58.61 -0.18z"/>
   <path class="fil0" d="M859.7 179.6c7.16,-23.9 -10.18,-44.13 -27.9,-48.6 -22.98,-5.8 -42.61,8.48 -47.86,27.22 -14.07,50.25 60.33,72.89 75.76,21.38z"/>
   <path class="fil0" d="M318.44 45.17c6.21,49.61 84.84,42.25 78.11,-12.05 -2.28,-18.4 -21.75,-36.45 -45.78,-32.6 -19.08,3.05 -35.26,21.23 -32.32,44.65z"/>
   <polygon class="fil1" points="658.11,145.41 648.09,94.81 582.53,95.22 573.28,144.5 "/>
   <path class="fil1" d="M729.73 170.97c9.37,-8.92 19.19,-20.89 27.71,-30.79 6.42,-7.46 7.05,-6.73 9.53,-19.27 1.69,-8.54 4.2,-17.93 4.81,-26.44l-64.51 0.27 13.51 59.07c2.11,6.1 4.3,13.21 8.94,17.16z"/>
  </g>
 </g>
</svg>
